<?xml version="1.0" encoding="UTF-8"?>
<svg xmlns="http://www.w3.org/2000/svg" xmlns:xlink="http://www.w3.org/1999/xlink" width="302px" height="316px" viewBox="0 0 302 316" version="1.1">
<g id="surface1">
<path style=" stroke:none;fill-rule:nonzero;fill:rgb(90.196078%,90.196078%,90.196078%);fill-opacity:1;" d="M 209.933594 39.15625 L 210.511719 38.546875 L 250.1875 76.316406 L 249.609375 76.921875 Z M 209.933594 39.15625 "/>
<path style=" stroke:none;fill-rule:nonzero;fill:rgb(90.196078%,90.196078%,90.196078%);fill-opacity:1;" d="M 250.25 72.21875 L 249.414062 72.269531 L 249.667969 76.394531 L 245.53125 76.347656 L 245.523438 77.183594 L 250.558594 77.246094 Z M 250.25 72.21875 "/>
<path style=" stroke:none;fill-rule:nonzero;fill:rgb(90.196078%,90.196078%,90.196078%);fill-opacity:1;" d="M 214.601562 38.285156 L 214.59375 39.121094 L 210.457031 39.074219 L 210.710938 43.199219 L 209.871094 43.25 L 209.566406 38.222656 Z M 214.601562 38.285156 "/>
<path style=" stroke:none;fill-rule:nonzero;fill:rgb(90.196078%,90.196078%,90.196078%);fill-opacity:1;" d="M 234.671875 57.734375 C 234.671875 60.28125 232.609375 62.347656 230.0625 62.347656 C 227.515625 62.347656 225.449219 60.28125 225.449219 57.734375 C 225.449219 55.1875 227.515625 53.125 230.0625 53.125 C 232.609375 53.125 234.671875 55.1875 234.671875 57.734375 Z M 234.671875 57.734375 "/>
<path style=" stroke:none;fill-rule:nonzero;fill:rgb(90.196078%,90.196078%,90.196078%);fill-opacity:1;" d="M 52.449219 76.316406 L 92.125 38.546875 L 92.703125 39.15625 L 53.027344 76.921875 Z M 52.449219 76.316406 "/>
<path style=" stroke:none;fill-rule:nonzero;fill:rgb(90.196078%,90.196078%,90.196078%);fill-opacity:1;" d="M 52.078125 77.246094 L 57.117188 77.183594 L 57.105469 76.347656 L 52.972656 76.394531 L 53.226562 72.269531 L 52.386719 72.21875 Z M 52.078125 77.246094 "/>
<path style=" stroke:none;fill-rule:nonzero;fill:rgb(90.196078%,90.196078%,90.196078%);fill-opacity:1;" d="M 93.070312 38.222656 L 92.765625 43.25 L 91.925781 43.199219 L 92.179688 39.074219 L 88.046875 39.121094 L 88.035156 38.285156 Z M 93.070312 38.222656 "/>
<path style=" stroke:none;fill-rule:nonzero;fill:rgb(90.196078%,90.196078%,90.196078%);fill-opacity:1;" d="M 77.1875 57.734375 C 77.1875 60.28125 75.125 62.347656 72.578125 62.347656 C 70.027344 62.347656 67.964844 60.28125 67.964844 57.734375 C 67.964844 55.1875 70.027344 53.125 72.578125 53.125 C 75.125 53.125 77.1875 55.1875 77.1875 57.734375 Z M 77.1875 57.734375 "/>
<path style=" stroke:none;fill-rule:nonzero;fill:rgb(24.705882%,23.921569%,33.72549%);fill-opacity:1;" d="M 185.695312 95.574219 L 116.101562 95.574219 C 114.019531 95.570312 112.332031 93.882812 112.328125 91.800781 L 112.328125 3.773438 C 112.332031 1.691406 114.019531 0.00390625 116.101562 0 L 185.695312 0 C 187.78125 0.00390625 189.46875 1.691406 189.46875 3.773438 L 189.46875 91.800781 C 189.46875 93.882812 187.78125 95.570312 185.695312 95.574219 Z M 116.101562 0.839844 C 114.480469 0.839844 113.167969 2.152344 113.167969 3.773438 L 113.167969 91.800781 C 113.167969 93.421875 114.480469 94.734375 116.101562 94.734375 L 185.695312 94.734375 C 187.316406 94.734375 188.628906 93.421875 188.632812 91.800781 L 188.632812 3.773438 C 188.628906 2.152344 187.316406 0.839844 185.695312 0.839844 Z M 116.101562 0.839844 "/>
<path style=" stroke:none;fill-rule:nonzero;fill:rgb(100%,29.411765%,29.411765%);fill-opacity:1;" d="M 145.109375 42.3125 L 129.792969 42.3125 C 128.75 42.3125 127.90625 41.46875 127.90625 40.425781 L 127.90625 22.351562 C 127.90625 21.308594 128.75 20.464844 129.792969 20.464844 L 145.109375 20.464844 C 146.152344 20.464844 146.996094 21.308594 146.996094 22.351562 L 146.996094 40.425781 C 146.996094 41.46875 146.152344 42.3125 145.109375 42.3125 Z M 145.109375 42.3125 "/>
<path style=" stroke:none;fill-rule:nonzero;fill:rgb(80%,80%,80%);fill-opacity:1;" d="M 174.875 50.695312 L 159.558594 50.695312 C 158.515625 50.695312 157.671875 49.851562 157.671875 48.808594 L 157.671875 30.734375 C 157.671875 29.695312 158.515625 28.851562 159.558594 28.847656 L 174.875 28.847656 C 175.917969 28.851562 176.761719 29.695312 176.761719 30.734375 L 176.761719 48.808594 C 176.761719 49.851562 175.917969 50.695312 174.875 50.695312 Z M 174.875 50.695312 "/>
<path style=" stroke:none;fill-rule:nonzero;fill:rgb(100%,39.607843%,51.764706%);fill-opacity:1;" d="M 150.980469 76.265625 L 135.660156 76.265625 C 134.621094 76.265625 133.773438 75.421875 133.773438 74.378906 L 133.773438 56.304688 C 133.773438 55.265625 134.621094 54.421875 135.660156 54.417969 L 150.980469 54.417969 C 152.019531 54.421875 152.867188 55.265625 152.867188 56.304688 L 152.867188 74.378906 C 152.867188 75.421875 152.019531 76.265625 150.980469 76.265625 Z M 150.980469 76.265625 "/>
<path style=" stroke:none;fill-rule:nonzero;fill:rgb(24.705882%,23.921569%,33.72549%);fill-opacity:1;" d="M 298.027344 186.089844 L 228.429688 186.089844 C 226.347656 186.085938 224.660156 184.398438 224.65625 182.316406 L 224.65625 94.289062 C 224.660156 92.203125 226.347656 90.515625 228.429688 90.515625 L 298.027344 90.515625 C 300.109375 90.515625 301.796875 92.203125 301.800781 94.289062 L 301.800781 182.316406 C 301.796875 184.398438 300.109375 186.085938 298.027344 186.089844 Z M 228.429688 91.351562 C 226.8125 91.355469 225.5 92.667969 225.496094 94.289062 L 225.496094 182.316406 C 225.5 183.9375 226.8125 185.25 228.429688 185.25 L 298.027344 185.25 C 299.644531 185.25 300.960938 183.9375 300.960938 182.316406 L 300.960938 94.289062 C 300.960938 92.667969 299.644531 91.355469 298.027344 91.351562 Z M 228.429688 91.351562 "/>
<path style=" stroke:none;fill-rule:nonzero;fill:rgb(100%,29.411765%,29.411765%);fill-opacity:1;" d="M 275.175781 110.007812 L 251.28125 110.007812 C 250.355469 110.007812 249.601562 109.257812 249.601562 108.332031 C 249.601562 107.402344 250.355469 106.652344 251.28125 106.652344 L 275.175781 106.652344 C 276.101562 106.652344 276.855469 107.402344 276.855469 108.332031 C 276.855469 109.257812 276.101562 110.007812 275.175781 110.007812 Z M 275.175781 110.007812 "/>
<path style=" stroke:none;fill-rule:nonzero;fill:rgb(80%,80%,80%);fill-opacity:1;" d="M 286.917969 125.9375 L 239.542969 125.9375 C 238.941406 125.9375 238.386719 125.617188 238.085938 125.097656 C 237.785156 124.578125 237.785156 123.9375 238.085938 123.421875 C 238.386719 122.902344 238.941406 122.582031 239.542969 122.582031 L 286.917969 122.582031 C 287.515625 122.582031 288.070312 122.902344 288.371094 123.421875 C 288.671875 123.9375 288.671875 124.578125 288.371094 125.097656 C 288.070312 125.617188 287.515625 125.9375 286.917969 125.9375 Z M 286.917969 125.9375 "/>
<path style=" stroke:none;fill-rule:nonzero;fill:rgb(80%,80%,80%);fill-opacity:1;" d="M 286.917969 134.738281 L 239.542969 134.738281 C 238.941406 134.738281 238.386719 134.421875 238.085938 133.902344 C 237.785156 133.382812 237.785156 132.742188 238.085938 132.222656 C 238.386719 131.703125 238.941406 131.382812 239.542969 131.386719 L 286.917969 131.386719 C 287.515625 131.382812 288.070312 131.703125 288.371094 132.222656 C 288.671875 132.742188 288.671875 133.382812 288.371094 133.902344 C 288.070312 134.421875 287.515625 134.738281 286.917969 134.738281 Z M 286.917969 134.738281 "/>
<path style=" stroke:none;fill-rule:nonzero;fill:rgb(80%,80%,80%);fill-opacity:1;" d="M 286.917969 143.542969 L 239.542969 143.542969 C 238.941406 143.542969 238.386719 143.222656 238.085938 142.703125 C 237.785156 142.183594 237.785156 141.546875 238.085938 141.027344 C 238.386719 140.507812 238.941406 140.1875 239.542969 140.1875 L 286.917969 140.1875 C 287.515625 140.1875 288.070312 140.507812 288.371094 141.027344 C 288.671875 141.546875 288.671875 142.183594 288.371094 142.703125 C 288.070312 143.222656 287.515625 143.542969 286.917969 143.542969 Z M 286.917969 143.542969 "/>
<path style=" stroke:none;fill-rule:nonzero;fill:rgb(80%,80%,80%);fill-opacity:1;" d="M 286.917969 152.34375 L 239.542969 152.34375 C 238.941406 152.34375 238.386719 152.027344 238.085938 151.507812 C 237.785156 150.988281 237.785156 150.347656 238.085938 149.828125 C 238.386719 149.308594 238.941406 148.988281 239.542969 148.992188 L 286.917969 148.992188 C 287.515625 148.988281 288.070312 149.308594 288.371094 149.828125 C 288.671875 150.347656 288.671875 150.988281 288.371094 151.507812 C 288.070312 152.027344 287.515625 152.34375 286.917969 152.34375 Z M 286.917969 152.34375 "/>
<path style=" stroke:none;fill-rule:nonzero;fill:rgb(80%,80%,80%);fill-opacity:1;" d="M 286.917969 161.148438 L 239.542969 161.148438 C 238.941406 161.148438 238.386719 160.828125 238.085938 160.308594 C 237.785156 159.789062 237.785156 159.152344 238.085938 158.632812 C 238.386719 158.113281 238.941406 157.792969 239.542969 157.792969 L 286.917969 157.792969 C 287.515625 157.792969 288.070312 158.113281 288.371094 158.632812 C 288.671875 159.152344 288.671875 159.789062 288.371094 160.308594 C 288.070312 160.828125 287.515625 161.148438 286.917969 161.148438 Z M 286.917969 161.148438 "/>
<path style=" stroke:none;fill-rule:nonzero;fill:rgb(80%,80%,80%);fill-opacity:1;" d="M 286.917969 169.949219 L 239.542969 169.949219 C 238.941406 169.953125 238.386719 169.632812 238.085938 169.113281 C 237.785156 168.59375 237.785156 167.953125 238.085938 167.433594 C 238.386719 166.914062 238.941406 166.597656 239.542969 166.597656 L 286.917969 166.597656 C 287.515625 166.597656 288.070312 166.914062 288.371094 167.433594 C 288.671875 167.953125 288.671875 168.59375 288.371094 169.113281 C 288.070312 169.632812 287.515625 169.953125 286.917969 169.949219 Z M 286.917969 169.949219 "/>
<path style=" stroke:none;fill-rule:nonzero;fill:rgb(24.705882%,23.921569%,33.72549%);fill-opacity:1;" d="M 73.367188 186.089844 L 3.773438 186.089844 C 1.691406 186.085938 0.00390625 184.398438 0 182.316406 L 0 94.289062 C 0.00390625 92.203125 1.691406 90.515625 3.773438 90.515625 L 73.367188 90.515625 C 75.449219 90.515625 77.140625 92.203125 77.140625 94.289062 L 77.140625 182.316406 C 77.140625 184.398438 75.449219 186.085938 73.367188 186.089844 Z M 3.773438 91.351562 C 2.152344 91.355469 0.839844 92.667969 0.839844 94.289062 L 0.839844 182.316406 C 0.839844 183.9375 2.152344 185.25 3.773438 185.25 L 73.367188 185.25 C 74.988281 185.25 76.300781 183.9375 76.300781 182.316406 L 76.300781 94.289062 C 76.300781 92.667969 74.988281 91.355469 73.367188 91.351562 Z M 3.773438 91.351562 "/>
<path style=" stroke:none;fill-rule:nonzero;fill:rgb(24.705882%,23.921569%,33.72549%);fill-opacity:1;" d="M 62.332031 111.296875 L 41.367188 111.296875 C 40.441406 111.296875 39.691406 110.546875 39.691406 109.621094 C 39.691406 108.695312 40.441406 107.945312 41.367188 107.945312 L 62.332031 107.945312 C 63.257812 107.945312 64.007812 108.695312 64.007812 109.621094 C 64.007812 110.546875 63.257812 111.296875 62.332031 111.296875 Z M 62.332031 111.296875 "/>
<path style=" stroke:none;fill-rule:nonzero;fill:rgb(24.705882%,23.921569%,33.72549%);fill-opacity:1;" d="M 62.332031 120.101562 L 41.367188 120.101562 C 40.441406 120.101562 39.691406 119.351562 39.691406 118.425781 C 39.691406 117.5 40.441406 116.746094 41.367188 116.746094 L 62.332031 116.746094 C 63.257812 116.746094 64.007812 117.5 64.007812 118.425781 C 64.007812 119.351562 63.257812 120.101562 62.332031 120.101562 Z M 62.332031 120.101562 "/>
<path style=" stroke:none;fill-rule:nonzero;fill:rgb(100%,29.411765%,29.411765%);fill-opacity:1;" d="M 30.613281 125.113281 L 15.292969 125.113281 C 14.25 125.113281 13.40625 124.269531 13.40625 123.226562 L 13.40625 105.152344 C 13.40625 104.109375 14.25 103.265625 15.292969 103.265625 L 30.613281 103.265625 C 31.652344 103.265625 32.496094 104.109375 32.5 105.152344 L 32.5 123.226562 C 32.496094 124.269531 31.652344 125.113281 30.613281 125.113281 Z M 30.613281 125.113281 "/>
<path style=" stroke:none;fill-rule:nonzero;fill:rgb(80%,80%,80%);fill-opacity:1;" d="M 62.183594 138.125 L 14.8125 138.125 C 14.210938 138.128906 13.65625 137.808594 13.355469 137.289062 C 13.054688 136.769531 13.054688 136.128906 13.355469 135.609375 C 13.65625 135.089844 14.210938 134.773438 14.8125 134.773438 L 62.183594 134.773438 C 62.785156 134.773438 63.339844 135.089844 63.640625 135.609375 C 63.941406 136.128906 63.941406 136.769531 63.640625 137.289062 C 63.339844 137.808594 62.785156 138.128906 62.183594 138.125 Z M 62.183594 138.125 "/>
<path style=" stroke:none;fill-rule:nonzero;fill:rgb(80%,80%,80%);fill-opacity:1;" d="M 62.183594 146.929688 L 14.8125 146.929688 C 14.210938 146.929688 13.65625 146.609375 13.355469 146.089844 C 13.054688 145.574219 13.054688 144.933594 13.355469 144.414062 C 13.65625 143.894531 14.210938 143.574219 14.8125 143.574219 L 62.183594 143.574219 C 62.785156 143.574219 63.339844 143.894531 63.640625 144.414062 C 63.941406 144.933594 63.941406 145.574219 63.640625 146.089844 C 63.339844 146.609375 62.785156 146.929688 62.183594 146.929688 Z M 62.183594 146.929688 "/>
<path style=" stroke:none;fill-rule:nonzero;fill:rgb(80%,80%,80%);fill-opacity:1;" d="M 62.183594 155.730469 L 14.8125 155.730469 C 14.210938 155.734375 13.65625 155.414062 13.355469 154.894531 C 13.054688 154.375 13.054688 153.734375 13.355469 153.214844 C 13.65625 152.695312 14.210938 152.378906 14.8125 152.378906 L 62.183594 152.378906 C 62.785156 152.378906 63.339844 152.695312 63.640625 153.214844 C 63.941406 153.734375 63.941406 154.375 63.640625 154.894531 C 63.339844 155.414062 62.785156 155.734375 62.183594 155.730469 Z M 62.183594 155.730469 "/>
<path style=" stroke:none;fill-rule:nonzero;fill:rgb(80%,80%,80%);fill-opacity:1;" d="M 62.183594 164.535156 L 14.8125 164.535156 C 14.210938 164.535156 13.65625 164.214844 13.355469 163.699219 C 13.054688 163.179688 13.054688 162.539062 13.355469 162.019531 C 13.65625 161.5 14.210938 161.179688 14.8125 161.179688 L 62.183594 161.179688 C 62.785156 161.179688 63.339844 161.5 63.640625 162.019531 C 63.941406 162.539062 63.941406 163.179688 63.640625 163.699219 C 63.339844 164.214844 62.785156 164.535156 62.183594 164.535156 Z M 62.183594 164.535156 "/>
<path style=" stroke:none;fill-rule:nonzero;fill:rgb(80%,80%,80%);fill-opacity:1;" d="M 62.183594 173.335938 L 14.8125 173.335938 C 14.210938 173.339844 13.65625 173.019531 13.355469 172.5 C 13.054688 171.980469 13.054688 171.339844 13.355469 170.820312 C 13.65625 170.300781 14.210938 169.984375 14.8125 169.984375 L 62.183594 169.984375 C 62.785156 169.984375 63.339844 170.300781 63.640625 170.820312 C 63.941406 171.339844 63.941406 171.980469 63.640625 172.5 C 63.339844 173.019531 62.785156 173.339844 62.183594 173.335938 Z M 62.183594 173.335938 "/>
<path style=" stroke:none;fill-rule:nonzero;fill:rgb(90.196078%,90.196078%,90.196078%);fill-opacity:1;" d="M 99.675781 237.109375 L 99.675781 219.035156 C 99.679688 217.992188 100.523438 217.148438 101.5625 217.148438 L 116.882812 217.148438 C 117.925781 217.148438 118.769531 217.992188 118.769531 219.035156 L 118.769531 237.109375 C 118.769531 238.152344 117.925781 238.996094 116.882812 238.996094 L 101.5625 238.996094 C 100.523438 238.996094 99.679688 238.152344 99.675781 237.109375 Z M 99.675781 237.109375 "/>
<path style=" stroke:none;fill-rule:nonzero;fill:rgb(100%,29.411765%,29.411765%);fill-opacity:1;" d="M 105.195312 231.089844 L 105.195312 213.015625 C 105.195312 211.972656 106.042969 211.128906 107.082031 211.128906 L 122.402344 211.128906 C 123.441406 211.128906 124.289062 211.972656 124.289062 213.015625 L 124.289062 231.089844 C 124.289062 232.132812 123.441406 232.976562 122.402344 232.976562 L 107.082031 232.976562 C 106.042969 232.976562 105.195312 232.132812 105.195312 231.089844 Z M 105.195312 231.089844 "/>
<path style=" stroke:none;fill-rule:nonzero;fill:rgb(62.745098%,38.039216%,41.568627%);fill-opacity:1;" d="M 173.867188 225.308594 C 172.699219 224.632812 171.894531 223.476562 171.660156 222.148438 C 171.429688 220.820312 171.796875 219.460938 172.664062 218.429688 L 167.917969 183.726562 L 177.808594 184.210938 L 179.359375 218.0625 C 181.03125 219.671875 181.234375 222.273438 179.832031 224.125 C 178.433594 225.972656 175.867188 226.480469 173.867188 225.308594 Z M 173.867188 225.308594 "/>
<path style=" stroke:none;fill-rule:nonzero;fill:rgb(80%,80%,80%);fill-opacity:1;" d="M 179.164062 184.671875 C 178.960938 184.914062 178.703125 185.097656 178.410156 185.207031 L 169.519531 188.601562 C 168.59375 188.953125 167.550781 188.519531 167.148438 187.613281 L 159.273438 169.921875 C 158.519531 168.28125 158.390625 166.417969 158.914062 164.6875 C 159.699219 162.171875 161.800781 160.292969 164.386719 159.78125 C 165.363281 159.582031 166.371094 159.59375 167.339844 159.824219 C 169.703125 160.351562 171.640625 162.035156 172.488281 164.296875 L 179.492188 182.800781 C 179.730469 183.4375 179.605469 184.15625 179.164062 184.671875 Z M 179.164062 184.671875 "/>
<path style=" stroke:none;fill-rule:nonzero;fill:rgb(62.745098%,38.039216%,41.568627%);fill-opacity:1;" d="M 132.84375 310.011719 L 126.691406 310.011719 L 124.464844 286.179688 L 132.84375 286.292969 Z M 132.84375 310.011719 "/>
<path style=" stroke:none;fill-rule:nonzero;fill:rgb(18.431373%,18.039216%,25.490196%);fill-opacity:1;" d="M 122.300781 308.253906 L 134.160156 308.253906 L 134.160156 315.722656 L 114.832031 315.722656 C 114.832031 311.597656 118.175781 308.253906 122.300781 308.253906 Z M 122.300781 308.253906 "/>
<path style=" stroke:none;fill-rule:nonzero;fill:rgb(62.745098%,38.039216%,41.568627%);fill-opacity:1;" d="M 161.4375 310.011719 L 155.289062 310.011719 L 152.363281 286.292969 L 161.4375 286.292969 Z M 161.4375 310.011719 "/>
<path style=" stroke:none;fill-rule:nonzero;fill:rgb(18.431373%,18.039216%,25.490196%);fill-opacity:1;" d="M 150.894531 308.253906 L 162.757812 308.253906 L 162.757812 315.722656 L 143.425781 315.722656 C 143.425781 311.597656 146.769531 308.253906 150.894531 308.253906 Z M 150.894531 308.253906 "/>
<path style=" stroke:none;fill-rule:nonzero;fill:rgb(18.431373%,18.039216%,25.490196%);fill-opacity:1;" d="M 162.210938 301.570312 L 152.550781 300.855469 C 151.414062 300.769531 150.519531 299.851562 150.464844 298.714844 L 148.308594 254.207031 C 148.265625 253.324219 147.574219 252.609375 146.691406 252.542969 C 145.808594 252.476562 145.015625 253.074219 144.835938 253.941406 L 135.851562 297.785156 C 135.621094 298.898438 134.59375 299.671875 133.460938 299.582031 L 124.726562 298.882812 C 124.125 298.832031 123.5625 298.542969 123.175781 298.078125 C 122.785156 297.613281 122.601562 297.011719 122.660156 296.40625 L 130.761719 215.414062 C 130.824219 214.773438 131.160156 214.191406 131.679688 213.8125 C 132.203125 213.433594 132.859375 213.296875 133.488281 213.433594 L 164.292969 220.128906 C 165.34375 220.359375 166.089844 221.300781 166.070312 222.375 L 164.636719 299.363281 C 164.613281 300.589844 163.613281 301.574219 162.382812 301.578125 C 162.328125 301.578125 162.269531 301.574219 162.210938 301.570312 Z M 162.210938 301.570312 "/>
<path style=" stroke:none;fill-rule:nonzero;fill:rgb(62.745098%,38.039216%,41.568627%);fill-opacity:1;" d="M 166.082031 135.371094 C 166.082031 142.175781 160.566406 147.691406 153.761719 147.691406 C 146.957031 147.691406 141.441406 142.175781 141.441406 135.371094 C 141.441406 128.566406 146.957031 123.050781 153.761719 123.050781 C 160.566406 123.050781 166.082031 128.566406 166.082031 135.371094 Z M 166.082031 135.371094 "/>
<path style=" stroke:none;fill-rule:nonzero;fill:rgb(80%,80%,80%);fill-opacity:1;" d="M 134.644531 221.660156 C 132.246094 219.507812 130.910156 216.417969 130.984375 213.199219 C 130.984375 195.492188 146.3125 155.933594 146.792969 154.699219 C 146.839844 154.402344 147.246094 154.273438 149.367188 152.839844 C 151.492188 151.40625 154.550781 151.1875 158.46875 152.1875 C 159.277344 152.394531 159.90625 153.035156 160.097656 153.851562 L 160.824219 154.902344 C 160.953125 155.445312 161.332031 155.890625 161.84375 156.109375 C 165 157.4375 175.035156 163.570312 171.617188 186.652344 C 168.441406 208.089844 167.152344 220.699219 166.742188 225.125 C 166.644531 226.210938 165.785156 227.066406 164.703125 227.164062 C 163.152344 227.304688 160.496094 227.488281 157.332031 227.488281 C 149.996094 227.488281 139.9375 226.5 134.644531 221.660156 Z M 134.644531 221.660156 "/>
<path style=" stroke:none;fill-rule:nonzero;fill:rgb(62.745098%,38.039216%,41.568627%);fill-opacity:1;" d="M 119.921875 215.097656 C 119.328125 213.890625 119.300781 212.480469 119.847656 211.246094 C 120.394531 210.015625 121.460938 209.089844 122.753906 208.71875 L 138.152344 177.257812 L 146.09375 183.171875 L 128.519531 212.144531 C 129.011719 214.410156 127.726562 216.6875 125.535156 217.441406 C 123.339844 218.195312 120.929688 217.1875 119.921875 215.097656 Z M 119.921875 215.097656 "/>
<path style=" stroke:none;fill-rule:nonzero;fill:rgb(80%,80%,80%);fill-opacity:1;" d="M 146.964844 184.308594 C 146.664062 184.394531 146.34375 184.402344 146.039062 184.332031 L 136.769531 182.195312 C 135.800781 181.972656 135.175781 181.035156 135.347656 180.058594 L 138.671875 160.976562 C 138.957031 159.195312 139.886719 157.578125 141.285156 156.433594 C 143.339844 154.78125 146.132812 154.390625 148.566406 155.40625 C 149.488281 155.785156 150.316406 156.359375 150.996094 157.089844 C 152.664062 158.839844 153.332031 161.316406 152.777344 163.671875 L 148.277344 182.9375 C 148.121094 183.601562 147.621094 184.125 146.964844 184.308594 Z M 146.964844 184.308594 "/>
<path style=" stroke:none;fill-rule:nonzero;fill:rgb(18.431373%,18.039216%,25.490196%);fill-opacity:1;" d="M 150.875 146.503906 C 149.660156 145.261719 149.125 143.503906 149.453125 141.792969 C 149.882812 139.546875 150.132812 138.078125 150.179688 137.542969 C 150.34375 135.714844 148.496094 134.230469 146.664062 133.996094 C 146.59375 133.988281 146.535156 133.980469 146.484375 133.976562 C 146.53125 134.023438 146.582031 134.070312 146.625 134.109375 C 146.972656 134.4375 147.40625 134.84375 147.304688 135.261719 C 147.242188 135.515625 147.011719 135.695312 146.597656 135.8125 C 143.734375 136.613281 141.53125 135.875 139.660156 133.496094 C 139.132812 132.820312 138.773438 132.027344 138.601562 131.1875 C 137.933594 127.902344 139.71875 125.097656 141.335938 123.328125 C 142.667969 121.867188 144.828125 120.089844 147.554688 119.941406 C 149.671875 119.820312 152.191406 121.039062 152.945312 123.238281 C 153.667969 122.167969 154.847656 121.503906 156.136719 121.4375 C 157.582031 121.40625 159.007812 121.804688 160.230469 122.578125 C 166.203125 126 168.769531 134.148438 165.835938 140.375 C 163.988281 144.292969 159.988281 147.210938 155.394531 147.988281 C 155.109375 148.035156 154.816406 148.058594 154.527344 148.058594 C 153.148438 148.058594 151.832031 147.496094 150.875 146.503906 Z M 150.875 146.503906 "/>
<path style=" stroke:none;fill-rule:nonzero;fill:rgb(24.705882%,23.921569%,33.72549%);fill-opacity:1;" d="M 93.097656 316 L 190.921875 316 C 191.199219 316 191.421875 315.777344 191.421875 315.5 C 191.421875 315.222656 191.199219 314.996094 190.921875 314.996094 L 93.097656 314.996094 C 92.820312 314.996094 92.597656 315.222656 92.597656 315.5 C 92.597656 315.777344 92.820312 316 93.097656 316 Z M 93.097656 316 "/>
</g>
</svg>
